<?xml version="1.0"?>
<svg xmlns="http://www.w3.org/2000/svg" viewBox="0 0 64 64">
    <path d="M 15.660156 4 C 14.320156 4 13.069141 4.5209375 12.119141 5.4609375 L 3.4609375 14.119141 C 2.5209375 15.069141 2 16.320156 2 17.660156 L 2 57 C 2 58.65 3.35 60 5 60 L 45 60 C 46.65 60 48 58.65 48 57 L 48 50 L 59.5 50 C 60.88 50 62 48.88 62 47.5 C 62 46.12 60.88 45 59.5 45 L 58.650391 45 L 56.197266 39.480469 C 55.274266 37.402469 53.755687 35.685625 51.804688 34.515625 L 50 33.433594 L 50 30.566406 L 51.804688 29.482422 C 53.754688 28.312422 55.274266 26.595578 56.197266 24.517578 L 58.650391 19 L 59.5 19 C 60.88 19 62 17.88 62 16.5 C 62 15.12 60.88 14 59.5 14 L 48 14 L 48 7 C 48 5.35 46.65 4 45 4 L 15.660156 4 z M 16 6 L 45 6 C 45.55 6 46 6.45 46 7 L 46 14 L 32.5 14 C 31.12 14 30 15.12 30 16.5 C 30 17.88 31.12 19 32.5 19 L 33.349609 19 L 35.802734 24.517578 C 36.725734 26.595578 38.244313 28.312422 40.195312 29.482422 L 42 30.566406 L 42 33.433594 L 40.195312 34.517578 C 38.245312 35.687578 36.725734 37.404422 35.802734 39.482422 L 33.349609 45 L 32.5 45 C 31.12 45 30 46.12 30 47.5 C 30 48.88 31.12 50 32.5 50 L 46 50 L 46 57 C 46 57.55 45.55 58 45 58 L 5 58 C 4.45 58 4 57.55 4 57 L 4 18 L 13 18 C 14.654 18 16 16.654 16 15 L 16 6 z M 14 6.5019531 L 14 15 C 14 15.551 13.551 16 13 16 L 4.4980469 16 C 4.6080469 15.836 4.7368594 15.680062 4.8808594 15.539062 L 13.539062 6.8808594 C 13.679063 6.7388594 13.834 6.6119531 14 6.5019531 z M 32.5 16 L 46 16 L 48 16 L 59.5 16 C 59.78 16 60 16.22 60 16.5 C 60 16.78 59.78 17 59.5 17 L 58 17 L 48 17 L 46 17 L 34 17 L 32.5 17 C 32.22 17 32 16.78 32 16.5 C 32 16.22 32.22 16 32.5 16 z M 35.539062 19 L 46 19 L 48 19 L 56.460938 19 L 54.369141 23.707031 C 53.614141 25.407031 52.370391 26.811531 50.775391 27.769531 L 48.970703 28.851562 C 48.371703 29.209563 48 29.867406 48 30.566406 L 48 33.433594 C 48 34.131594 48.371703 34.788437 48.970703 35.148438 L 50.775391 36.232422 C 51.936391 36.929422 52.904625 37.868469 53.640625 38.980469 L 51.34375 38.060547 C 47.47075 36.645547 44.268906 36.649266 40.628906 38.072266 L 38.359375 38.978516 C 39.094375 37.866516 40.062656 36.929422 41.222656 36.232422 L 43.029297 35.148438 C 43.628297 34.788438 43.998047 34.131594 43.998047 33.433594 L 43.998047 30.566406 C 43.998047 29.867406 43.626344 29.210562 43.027344 28.851562 L 41.224609 27.767578 C 39.628609 26.809578 38.386859 25.405078 37.630859 23.705078 L 35.539062 19 z M 11 23 A 2 2 0 0 0 9 25 A 2 2 0 0 0 11 27 A 2 2 0 0 0 13 25 A 2 2 0 0 0 11 23 z M 17 24 C 16.448 24 16 24.448 16 25 C 16 25.552 16.448 26 17 26 L 30 26 C 30.552 26 31 25.552 31 25 C 31 24.448 30.552 24 30 24 L 17 24 z M 11 29 A 2 2 0 0 0 9 31 A 2 2 0 0 0 11 33 A 2 2 0 0 0 13 31 A 2 2 0 0 0 11 29 z M 17 30 C 16.448 30 16 30.448 16 31 C 16 31.552 16.448 32 17 32 L 26 32 C 26.552 32 27 31.552 27 31 C 27 30.448 26.552 30 26 30 L 17 30 z M 30 30 C 29.448 30 29 30.448 29 31 C 29 31.552 29.448 32 30 32 L 34 32 C 34.552 32 35 31.552 35 31 C 35 30.448 34.552 30 34 30 L 30 30 z M 11 35 A 2 2 0 0 0 9 37 A 2 2 0 0 0 11 39 A 2 2 0 0 0 13 37 A 2 2 0 0 0 11 35 z M 17 36 C 16.448 36 16 36.448 16 37 C 16 37.552 16.448 38 17 38 L 31 38 C 31.552 38 32 37.552 32 37 C 32 36.448 31.552 36 31 36 L 17 36 z M 45.916016 39 C 47.410641 38.999875 48.933406 39.309234 50.628906 39.927734 L 54.974609 41.667969 C 54.976609 41.668969 54.978469 41.666969 54.980469 41.667969 L 56.460938 45 L 48 45 L 46 45 L 35.539062 45 L 37.019531 41.669922 L 41.363281 39.931641 C 42.953281 39.310641 44.421391 39.000125 45.916016 39 z M 11 41 A 2 2 0 0 0 9 43 A 2 2 0 0 0 11 45 A 2 2 0 0 0 13 43 A 2 2 0 0 0 11 41 z M 17 42 C 16.448 42 16 42.448 16 43 C 16 43.552 16.448 44 17 44 L 28 44 C 28.552 44 29 43.552 29 43 C 29 42.448 28.552 42 28 42 L 17 42 z M 32.5 47 L 34 47 L 46 47 L 48 47 L 58 47 L 59.5 47 C 59.78 47 60 47.22 60 47.5 C 60 47.78 59.78 48 59.5 48 L 48 48 L 46 48 L 32.5 48 C 32.22 48 32 47.78 32 47.5 C 32 47.22 32.22 47 32.5 47 z M 7 52 C 6.448 52 6 52.448 6 53 L 6 55 C 6 55.552 6.448 56 7 56 C 7.552 56 8 55.552 8 55 L 8 53 C 8 52.448 7.552 52 7 52 z M 12 52 C 11.448 52 11 52.448 11 53 L 11 55 C 11 55.552 11.448 56 12 56 C 12.552 56 13 55.552 13 55 L 13 53 C 13 52.448 12.552 52 12 52 z M 17 52 C 16.448 52 16 52.448 16 53 L 16 55 C 16 55.552 16.448 56 17 56 C 17.552 56 18 55.552 18 55 L 18 53 C 18 52.448 17.552 52 17 52 z M 22 52 C 21.448 52 21 52.448 21 53 L 21 55 C 21 55.552 21.448 56 22 56 C 22.552 56 23 55.552 23 55 L 23 53 C 23 52.448 22.552 52 22 52 z M 27 52 C 26.448 52 26 52.448 26 53 L 26 55 C 26 55.552 26.448 56 27 56 C 27.552 56 28 55.552 28 55 L 28 53 C 28 52.448 27.552 52 27 52 z M 32 52 C 31.448 52 31 52.448 31 53 L 31 55 C 31 55.552 31.448 56 32 56 C 32.552 56 33 55.552 33 55 L 33 53 C 33 52.448 32.552 52 32 52 z M 37 52 C 36.448 52 36 52.448 36 53 L 36 55 C 36 55.552 36.448 56 37 56 C 37.552 56 38 55.552 38 55 L 38 53 C 38 52.448 37.552 52 37 52 z M 42 52 C 41.448 52 41 52.448 41 53 L 41 55 C 41 55.552 41.448 56 42 56 C 42.552 56 43 55.552 43 55 L 43 53 C 43 52.448 42.552 52 42 52 z"/>
</svg>
